<svg width="51" height="67" viewBox="0 0 51 67" fill="none" xmlns="http://www.w3.org/2000/svg">
<rect x="18.3096" y="35.022" width="14.3033" height="31.2626" rx="3" fill="#7C5C36" fill-opacity="0.5"/>
<path d="M10.7715 23.2466L22.2546 4.22225C23.3952 2.33273 26.1168 2.28009 27.3296 4.12411L39.841 23.1484C41.153 25.1433 39.7221 27.7969 37.3345 27.7969H13.3399C11.0044 27.7969 9.56461 25.246 10.7715 23.2466Z" fill="#44963D"/>
<path d="M7.58593 37.694L22.1185 13.6178C23.259 11.7282 25.9807 11.6756 27.1934 13.5196L43.0273 37.5959C44.3392 39.5907 42.9084 42.2443 40.5208 42.2443H10.1543C7.81889 42.2443 6.37906 39.6935 7.58593 37.694Z" fill="#44963D"/>
<path d="M3.45702 53.6359L21.9411 23.0131C23.0816 21.1236 25.8033 21.071 27.016 22.915L47.1553 53.5378C48.4672 55.5326 47.0363 58.1862 44.6488 58.1862H6.02541C3.68998 58.1862 2.25016 55.6354 3.45702 53.6359Z" fill="#44963D"/>
<path d="M13.1253 18.4764C16.3237 19.6758 21.7047 21.3641 27.0318 22.3501C30.1283 22.9232 32.3963 28.682 29.8311 30.5086C27.511 32.1607 24.9951 33.7594 22.4064 35.12C19.4624 36.6675 18.5693 44.4149 21.7046 45.5248C29.2699 48.2028 37.652 50.0705 43.6926 48.6233" stroke="#FDFF87" stroke-width="0.5" stroke-linecap="round" stroke-dasharray="1 1"/>
<circle cx="21.2621" cy="16.267" r="2.6713" fill="#FFA8A8"/>
<circle cx="31.7782" cy="25.8935" r="2.6713" fill="#FF7A00"/>
<circle cx="18.5907" cy="32.3506" r="2.6713" fill="#3FC5FF"/>
<circle cx="35.5653" cy="46.3727" r="2.6713" fill="#FFD482"/>
<circle cx="14.1039" cy="49.9634" r="2.6713" fill="#FF4A4A"/>
</svg>
